<svg width="48" height="48" viewBox="0 0 48 48" fill="none" xmlns="http://www.w3.org/2000/svg">
<rect x="6" y="12" width="36" height="24" rx="3" fill="#CC9D3F"/>
<mask id="mask0_3885_60614" style="mask-type:luminance" maskUnits="userSpaceOnUse" x="6" y="12" width="36" height="24">
<rect x="6" y="12" width="36" height="24" rx="3" fill="white"/>
</mask>
<g mask="url(#mask0_3885_60614)">
<rect x="5" y="11" width="36" height="24" rx="3" fill="#FFC54F"/>
<path fill-rule="evenodd" clip-rule="evenodd" d="M31.576 26.268C32.2587 26.268 32.78 26.02 33.14 25.524C33.5 25.028 33.68 24.3107 33.68 23.372C33.68 22.444 33.4987 21.7333 33.136 21.24C32.7733 20.7467 32.2533 20.5 31.576 20.5C30.8987 20.5 30.3787 20.7467 30.016 21.24C29.6533 21.7333 29.472 22.444 29.472 23.372C29.472 24.3107 29.652 25.028 30.012 25.524C30.372 26.02 30.8933 26.268 31.576 26.268ZM28.896 26.196V25.196H27.68V20.556H26.792L25 21.604L25.472 22.5L26.432 21.94V25.196H25.216V26.196H28.896ZM30.9 24.852C31.0413 25.1613 31.2667 25.316 31.576 25.316C31.8853 25.316 32.1107 25.1613 32.252 24.852C32.3933 24.5427 32.464 24.0493 32.464 23.372C32.464 22.7 32.3933 22.212 32.252 21.908C32.1107 21.604 31.8853 21.452 31.576 21.452C31.2667 21.452 31.0413 21.604 30.9 21.908C30.7587 22.212 30.688 22.7 30.688 23.372C30.688 24.0493 30.7587 24.5427 30.9 24.852ZM36.376 26.268C37.0587 26.268 37.58 26.02 37.94 25.524C38.3 25.028 38.48 24.3107 38.48 23.372C38.48 22.444 38.2987 21.7333 37.936 21.24C37.5733 20.7467 37.0533 20.5 36.376 20.5C35.6987 20.5 35.1787 20.7467 34.816 21.24C34.4533 21.7333 34.272 22.444 34.272 23.372C34.272 24.3107 34.452 25.028 34.812 25.524C35.172 26.02 35.6933 26.268 36.376 26.268ZM35.7 24.852C35.8413 25.1613 36.0667 25.316 36.376 25.316C36.6853 25.316 36.9107 25.1613 37.052 24.852C37.1933 24.5427 37.264 24.0493 37.264 23.372C37.264 22.7 37.1933 22.212 37.052 21.908C36.9107 21.604 36.6853 21.452 36.376 21.452C36.0667 21.452 35.8413 21.604 35.7 21.908C35.5587 22.212 35.488 22.7 35.488 23.372C35.488 24.0493 35.5587 24.5427 35.7 24.852Z" fill="#CC9D3F"/>
</g>
<path fill-rule="evenodd" clip-rule="evenodd" d="M22.3774 26.9268C21.6148 27.0244 12.3852 27.0244 11.6232 26.9268C11.2218 26.8757 10.9428 26.514 11.01 26.1258C11.0994 25.6135 11.2776 24.7428 11.637 23.3146C12.0594 21.6342 12.357 20.8365 12.5298 20.4649C12.6246 20.2611 12.81 20.1145 13.0356 20.0707C13.5168 19.9764 20.4832 19.9764 20.9644 20.0707C21.19 20.1145 21.3754 20.2611 21.4702 20.4649C21.643 20.8365 21.9406 21.6342 22.363 23.3146C22.7224 24.7428 22.9012 25.6135 22.99 26.1258C23.0572 26.514 22.7782 26.8757 22.3774 26.9268Z" fill="#CC9D3F"/>
<mask id="mask1_3885_60614" style="mask-type:luminance" maskUnits="userSpaceOnUse" x="11" y="20" width="12" height="7">
<path fill-rule="evenodd" clip-rule="evenodd" d="M22.3774 26.9268C21.6148 27.0244 12.3852 27.0244 11.6232 26.9268C11.2218 26.8757 10.9428 26.514 11.01 26.1258C11.0994 25.6135 11.2776 24.7428 11.637 23.3146C12.0594 21.6342 12.357 20.8365 12.5298 20.4649C12.6246 20.2611 12.81 20.1145 13.0356 20.0707C13.5168 19.9764 20.4832 19.9764 20.9644 20.0707C21.19 20.1145 21.3754 20.2611 21.4702 20.4649C21.643 20.8365 21.9406 21.6342 22.363 23.3146C22.7224 24.7428 22.9012 25.6135 22.99 26.1258C23.0572 26.514 22.7782 26.8757 22.3774 26.9268Z" fill="white"/>
</mask>
<g mask="url(#mask1_3885_60614)">
</g>
</svg>
