<svg width="48" height="48" viewBox="0 0 48 48" fill="none" xmlns="http://www.w3.org/2000/svg">
<rect x="6" y="12" width="36" height="24" rx="3" fill="#CC9D3F"/>
<mask id="mask0_3885_60600" style="mask-type:luminance" maskUnits="userSpaceOnUse" x="6" y="12" width="36" height="24">
<rect x="6" y="12" width="36" height="24" rx="3" fill="white"/>
</mask>
<g mask="url(#mask0_3885_60600)">
<rect x="5" y="11" width="36" height="24" rx="3" fill="#FFC54F"/>
<path fill-rule="evenodd" clip-rule="evenodd" d="M29.056 25.212V26.212H25.176V25.292L27.056 23.3C27.4507 22.884 27.648 22.5 27.648 22.148C27.648 21.7 27.392 21.476 26.88 21.476C26.6453 21.476 26.4 21.5227 26.144 21.616C25.888 21.7093 25.6373 21.844 25.392 22.02L25 21.132C25.224 20.94 25.512 20.7867 25.864 20.672C26.216 20.5573 26.576 20.5 26.944 20.5C27.5307 20.5 27.9987 20.6413 28.348 20.924C28.6973 21.2067 28.872 21.5853 28.872 22.06C28.872 22.3853 28.804 22.6867 28.668 22.964C28.532 23.2413 28.304 23.5507 27.984 23.892L26.728 25.212H29.056ZM32.956 26.04C32.628 26.1973 32.2453 26.276 31.808 26.276C31.4507 26.276 31.096 26.2187 30.744 26.104C30.392 25.9893 30.1067 25.836 29.888 25.644L30.28 24.756C30.7973 25.1187 31.312 25.3 31.824 25.3C32.1493 25.3 32.396 25.2253 32.564 25.076C32.732 24.9267 32.816 24.7053 32.816 24.412C32.816 24.1347 32.7293 23.916 32.556 23.756C32.3827 23.596 32.1467 23.516 31.848 23.516C31.6613 23.516 31.476 23.5507 31.292 23.62C31.108 23.6893 30.9413 23.7853 30.792 23.908H30.08V20.572H33.712V21.524H31.296V22.78C31.552 22.636 31.8533 22.564 32.2 22.564C32.5467 22.564 32.856 22.64 33.128 22.792C33.4 22.944 33.6107 23.156 33.76 23.428C33.9093 23.7 33.984 24.0147 33.984 24.372C33.984 24.7507 33.8947 25.084 33.716 25.372C33.5373 25.66 33.284 25.8827 32.956 26.04ZM36.656 26.284C37.3387 26.284 37.86 26.036 38.22 25.54C38.58 25.044 38.76 24.3267 38.76 23.388C38.76 22.46 38.5787 21.7493 38.216 21.256C37.8533 20.7627 37.3333 20.516 36.656 20.516C35.9787 20.516 35.4587 20.7627 35.096 21.256C34.7333 21.7493 34.552 22.46 34.552 23.388C34.552 24.3267 34.732 25.044 35.092 25.54C35.452 26.036 35.9733 26.284 36.656 26.284ZM35.98 24.868C36.1213 25.1773 36.3467 25.332 36.656 25.332C36.9653 25.332 37.1907 25.1773 37.332 24.868C37.4733 24.5587 37.544 24.0653 37.544 23.388C37.544 22.716 37.4733 22.228 37.332 21.924C37.1907 21.62 36.9653 21.468 36.656 21.468C36.3467 21.468 36.1213 21.62 35.98 21.924C35.8387 22.228 35.768 22.716 35.768 23.388C35.768 24.0653 35.8387 24.5587 35.98 24.868Z" fill="#CC9D3F"/>
</g>
<path fill-rule="evenodd" clip-rule="evenodd" d="M22.3774 26.9268C21.6148 27.0244 12.3852 27.0244 11.6232 26.9268C11.2218 26.8757 10.9428 26.514 11.01 26.1258C11.0994 25.6135 11.2776 24.7428 11.637 23.3146C12.0594 21.6342 12.357 20.8365 12.5298 20.4649C12.6246 20.2611 12.81 20.1145 13.0356 20.0707C13.5168 19.9764 20.4832 19.9764 20.9644 20.0707C21.19 20.1145 21.3754 20.2611 21.4702 20.4649C21.643 20.8365 21.9406 21.6342 22.363 23.3146C22.7224 24.7428 22.9012 25.6135 22.99 26.1258C23.0572 26.514 22.7782 26.8757 22.3774 26.9268Z" fill="#CC9D3F"/>
<mask id="mask1_3885_60600" style="mask-type:luminance" maskUnits="userSpaceOnUse" x="11" y="20" width="12" height="7">
<path fill-rule="evenodd" clip-rule="evenodd" d="M22.3774 26.9268C21.6148 27.0244 12.3852 27.0244 11.6232 26.9268C11.2218 26.8757 10.9428 26.514 11.01 26.1258C11.0994 25.6135 11.2776 24.7428 11.637 23.3146C12.0594 21.6342 12.357 20.8365 12.5298 20.4649C12.6246 20.2611 12.81 20.1145 13.0356 20.0707C13.5168 19.9764 20.4832 19.9764 20.9644 20.0707C21.19 20.1145 21.3754 20.2611 21.4702 20.4649C21.643 20.8365 21.9406 21.6342 22.363 23.3146C22.7224 24.7428 22.9012 25.6135 22.99 26.1258C23.0572 26.514 22.7782 26.8757 22.3774 26.9268Z" fill="white"/>
</mask>
<g mask="url(#mask1_3885_60600)">
</g>
</svg>
