<svg width="48" height="48" viewBox="0 0 48 48" fill="none" xmlns="http://www.w3.org/2000/svg">
<rect x="6" y="12" width="36" height="24" rx="3" fill="#CC9D3F"/>
<mask id="mask0_3885_60605" style="mask-type:luminance" maskUnits="userSpaceOnUse" x="6" y="12" width="36" height="24">
<rect x="6" y="12" width="36" height="24" rx="3" fill="white"/>
</mask>
<g mask="url(#mask0_3885_60605)">
<rect x="5" y="11" width="36" height="24" rx="3" fill="#FFC54F"/>
<path fill-rule="evenodd" clip-rule="evenodd" d="M30.0362 25.4175C30.559 25.4175 30.9583 25.2276 31.234 24.8477C31.5097 24.4678 31.6476 23.9185 31.6476 23.1996C31.6476 22.4888 31.5087 21.9446 31.2309 21.5667C30.9532 21.1889 30.5549 21 30.0362 21C29.5174 21 29.1192 21.1889 28.8414 21.5667C28.5637 21.9446 28.4248 22.4888 28.4248 23.1996C28.4248 23.9185 28.5627 24.4678 28.8384 24.8477C29.1141 25.2276 29.5134 25.4175 30.0362 25.4175ZM27.9838 25.3624V24.5965H27.0525V21.0429H26.3724L25 21.8455L25.3615 22.5317L26.0967 22.1028V24.5965H25.1654V25.3624H27.9838ZM29.5186 24.333C29.6268 24.57 29.7994 24.6884 30.0363 24.6884C30.2732 24.6884 30.4458 24.57 30.554 24.333C30.6623 24.0961 30.7164 23.7183 30.7164 23.1996C30.7164 22.6849 30.6623 22.3112 30.554 22.0783C30.4458 21.8455 30.2732 21.7291 30.0363 21.7291C29.7994 21.7291 29.6268 21.8455 29.5186 22.0783C29.4103 22.3112 29.3562 22.6849 29.3562 23.1996C29.3562 23.7183 29.4103 24.0961 29.5186 24.333ZM33.7126 25.4175C34.2354 25.4175 34.6347 25.2276 34.9104 24.8477C35.1861 24.4678 35.3239 23.9185 35.3239 23.1996C35.3239 22.4888 35.1851 21.9446 34.9073 21.5667C34.6295 21.1889 34.2313 21 33.7126 21C33.1938 21 32.7956 21.1889 32.5178 21.5667C32.24 21.9446 32.1012 22.4888 32.1012 23.1996C32.1012 23.9185 32.239 24.4678 32.5147 24.8477C32.7905 25.2276 33.1897 25.4175 33.7126 25.4175ZM33.1949 24.333C33.3032 24.57 33.4757 24.6884 33.7127 24.6884C33.9496 24.6884 34.1221 24.57 34.2304 24.333C34.3386 24.0961 34.3927 23.7183 34.3927 23.1996C34.3927 22.6849 34.3386 22.3112 34.2304 22.0783C34.1221 21.8455 33.9496 21.7291 33.7127 21.7291C33.4757 21.7291 33.3032 21.8455 33.1949 22.0783C33.0867 22.3112 33.0326 22.6849 33.0326 23.1996C33.0326 23.7183 33.0867 24.0961 33.1949 24.333ZM37.3886 25.4175C37.9114 25.4175 38.3107 25.2276 38.5864 24.8477C38.8621 24.4678 39 23.9185 39 23.1996C39 22.4888 38.8611 21.9446 38.5833 21.5667C38.3056 21.1889 37.9073 21 37.3886 21C36.8698 21 36.4716 21.1889 36.1938 21.5667C35.9161 21.9446 35.7772 22.4888 35.7772 23.1996C35.7772 23.9185 35.9151 24.4678 36.1908 24.8477C36.4665 25.2276 36.8657 25.4175 37.3886 25.4175ZM36.871 24.333C36.9792 24.57 37.1518 24.6884 37.3887 24.6884C37.6256 24.6884 37.7982 24.57 37.9064 24.333C38.0146 24.0961 38.0688 23.7183 38.0688 23.1996C38.0688 22.6849 38.0146 22.3112 37.9064 22.0783C37.7982 21.8455 37.6256 21.7291 37.3887 21.7291C37.1518 21.7291 36.9792 21.8455 36.871 22.0783C36.7627 22.3112 36.7086 22.6849 36.7086 23.1996C36.7086 23.7183 36.7627 24.0961 36.871 24.333Z" fill="#CC9D3F"/>
</g>
<path fill-rule="evenodd" clip-rule="evenodd" d="M22.3774 26.9268C21.6148 27.0244 12.3852 27.0244 11.6232 26.9268C11.2218 26.8757 10.9428 26.514 11.01 26.1258C11.0994 25.6135 11.2776 24.7428 11.637 23.3146C12.0594 21.6342 12.357 20.8365 12.5298 20.4649C12.6246 20.2611 12.81 20.1145 13.0356 20.0707C13.5168 19.9764 20.4832 19.9764 20.9644 20.0707C21.19 20.1145 21.3754 20.2611 21.4702 20.4649C21.643 20.8365 21.9406 21.6342 22.363 23.3146C22.7224 24.7428 22.9012 25.6135 22.99 26.1258C23.0572 26.514 22.7782 26.8757 22.3774 26.9268Z" fill="#CC9D3F"/>
<mask id="mask1_3885_60605" style="mask-type:luminance" maskUnits="userSpaceOnUse" x="11" y="20" width="12" height="7">
<path fill-rule="evenodd" clip-rule="evenodd" d="M22.3774 26.9268C21.6148 27.0244 12.3852 27.0244 11.6232 26.9268C11.2218 26.8757 10.9428 26.514 11.01 26.1258C11.0994 25.6135 11.2776 24.7428 11.637 23.3146C12.0594 21.6342 12.357 20.8365 12.5298 20.4649C12.6246 20.2611 12.81 20.1145 13.0356 20.0707C13.5168 19.9764 20.4832 19.9764 20.9644 20.0707C21.19 20.1145 21.3754 20.2611 21.4702 20.4649C21.643 20.8365 21.9406 21.6342 22.363 23.3146C22.7224 24.7428 22.9012 25.6135 22.99 26.1258C23.0572 26.514 22.7782 26.8757 22.3774 26.9268Z" fill="white"/>
</mask>
<g mask="url(#mask1_3885_60605)">
</g>
</svg>
