<svg width="48" height="48" viewBox="0 0 48 48" fill="none" xmlns="http://www.w3.org/2000/svg">
<rect x="6" y="12" width="36" height="24" rx="3" fill="#CC9D3F"/>
<mask id="mask0_3885_60599" style="mask-type:luminance" maskUnits="userSpaceOnUse" x="6" y="12" width="36" height="24">
<rect x="6" y="12" width="36" height="24" rx="3" fill="white"/>
</mask>
<g mask="url(#mask0_3885_60599)">
<rect x="5" y="11" width="36" height="24" rx="3" fill="#FFC54F"/>
<path fill-rule="evenodd" clip-rule="evenodd" d="M31.056 25.212V26.212H27.176V25.292L29.056 23.3C29.4507 22.884 29.648 22.5 29.648 22.148C29.648 21.7 29.392 21.476 28.88 21.476C28.6453 21.476 28.4 21.5227 28.144 21.616C27.888 21.7093 27.6373 21.844 27.392 22.02L27 21.132C27.224 20.94 27.512 20.7867 27.864 20.672C28.216 20.5573 28.576 20.5 28.944 20.5C29.5307 20.5 29.9987 20.6413 30.348 20.924C30.6973 21.2067 30.872 21.5853 30.872 22.06C30.872 22.3853 30.804 22.6867 30.668 22.964C30.532 23.2413 30.304 23.5507 29.984 23.892L28.728 25.212H31.056ZM34.956 26.04C34.628 26.1973 34.2453 26.276 33.808 26.276C33.4507 26.276 33.096 26.2187 32.744 26.104C32.392 25.9893 32.1067 25.836 31.888 25.644L32.28 24.756C32.7973 25.1187 33.312 25.3 33.824 25.3C34.1493 25.3 34.396 25.2253 34.564 25.076C34.732 24.9267 34.816 24.7053 34.816 24.412C34.816 24.1347 34.7293 23.916 34.556 23.756C34.3827 23.596 34.1467 23.516 33.848 23.516C33.6613 23.516 33.476 23.5507 33.292 23.62C33.108 23.6893 32.9413 23.7853 32.792 23.908H32.08V20.572H35.712V21.524H33.296V22.78C33.552 22.636 33.8533 22.564 34.2 22.564C34.5467 22.564 34.856 22.64 35.128 22.792C35.4 22.944 35.6107 23.156 35.76 23.428C35.9093 23.7 35.984 24.0147 35.984 24.372C35.984 24.7507 35.8947 25.084 35.716 25.372C35.5373 25.66 35.284 25.8827 34.956 26.04Z" fill="#CC9D3F"/>
</g>
<path fill-rule="evenodd" clip-rule="evenodd" d="M22.3774 26.9268C21.6148 27.0244 12.3852 27.0244 11.6232 26.9268C11.2218 26.8757 10.9428 26.514 11.01 26.1258C11.0994 25.6135 11.2776 24.7428 11.637 23.3146C12.0594 21.6342 12.357 20.8365 12.5298 20.4649C12.6246 20.2611 12.81 20.1145 13.0356 20.0707C13.5168 19.9764 20.4832 19.9764 20.9644 20.0707C21.19 20.1145 21.3754 20.2611 21.4702 20.4649C21.643 20.8365 21.9406 21.6342 22.363 23.3146C22.7224 24.7428 22.9012 25.6135 22.99 26.1258C23.0572 26.514 22.7782 26.8757 22.3774 26.9268Z" fill="#CC9D3F"/>
<mask id="mask1_3885_60599" style="mask-type:luminance" maskUnits="userSpaceOnUse" x="11" y="20" width="12" height="7">
<path fill-rule="evenodd" clip-rule="evenodd" d="M22.3774 26.9268C21.6148 27.0244 12.3852 27.0244 11.6232 26.9268C11.2218 26.8757 10.9428 26.514 11.01 26.1258C11.0994 25.6135 11.2776 24.7428 11.637 23.3146C12.0594 21.6342 12.357 20.8365 12.5298 20.4649C12.6246 20.2611 12.81 20.1145 13.0356 20.0707C13.5168 19.9764 20.4832 19.9764 20.9644 20.0707C21.19 20.1145 21.3754 20.2611 21.4702 20.4649C21.643 20.8365 21.9406 21.6342 22.363 23.3146C22.7224 24.7428 22.9012 25.6135 22.99 26.1258C23.0572 26.514 22.7782 26.8757 22.3774 26.9268Z" fill="white"/>
</mask>
<g mask="url(#mask1_3885_60599)">
</g>
</svg>
