<svg width="48" height="48" viewBox="0 0 48 48" fill="none" xmlns="http://www.w3.org/2000/svg">
<rect x="6" y="12" width="36" height="24" rx="3" fill="#CC9D3F"/>
<mask id="mask0_3885_60603" style="mask-type:luminance" maskUnits="userSpaceOnUse" x="6" y="12" width="36" height="24">
<rect x="6" y="12" width="36" height="24" rx="3" fill="white"/>
</mask>
<g mask="url(#mask0_3885_60603)">
<rect x="5" y="11" width="36" height="24" rx="3" fill="#FFC54F"/>
<path fill-rule="evenodd" clip-rule="evenodd" d="M33.576 26.268C34.2587 26.268 34.78 26.02 35.14 25.524C35.5 25.028 35.68 24.3107 35.68 23.372C35.68 22.444 35.4987 21.7333 35.136 21.24C34.7733 20.7467 34.2533 20.5 33.576 20.5C32.8987 20.5 32.3787 20.7467 32.016 21.24C31.6533 21.7333 31.472 22.444 31.472 23.372C31.472 24.3107 31.652 25.028 32.012 25.524C32.372 26.02 32.8933 26.268 33.576 26.268ZM30.896 26.196V25.196H29.68V20.556H28.792L27 21.604L27.472 22.5L28.432 21.94V25.196H27.216V26.196H30.896ZM32.9 24.852C33.0413 25.1613 33.2667 25.316 33.576 25.316C33.8853 25.316 34.1107 25.1613 34.252 24.852C34.3933 24.5427 34.464 24.0493 34.464 23.372C34.464 22.7 34.3933 22.212 34.252 21.908C34.1107 21.604 33.8853 21.452 33.576 21.452C33.2667 21.452 33.0413 21.604 32.9 21.908C32.7587 22.212 32.688 22.7 32.688 23.372C32.688 24.0493 32.7587 24.5427 32.9 24.852Z" fill="#CC9D3F"/>
</g>
<path fill-rule="evenodd" clip-rule="evenodd" d="M22.3774 26.9268C21.6148 27.0244 12.3852 27.0244 11.6232 26.9268C11.2218 26.8757 10.9428 26.514 11.01 26.1258C11.0994 25.6135 11.2776 24.7428 11.637 23.3146C12.0594 21.6342 12.357 20.8365 12.5298 20.4649C12.6246 20.2611 12.81 20.1145 13.0356 20.0707C13.5168 19.9764 20.4832 19.9764 20.9644 20.0707C21.19 20.1145 21.3754 20.2611 21.4702 20.4649C21.643 20.8365 21.9406 21.6342 22.363 23.3146C22.7224 24.7428 22.9012 25.6135 22.99 26.1258C23.0572 26.514 22.7782 26.8757 22.3774 26.9268Z" fill="#CC9D3F"/>
<mask id="mask1_3885_60603" style="mask-type:luminance" maskUnits="userSpaceOnUse" x="11" y="20" width="12" height="7">
<path fill-rule="evenodd" clip-rule="evenodd" d="M22.3774 26.9268C21.6148 27.0244 12.3852 27.0244 11.6232 26.9268C11.2218 26.8757 10.9428 26.514 11.01 26.1258C11.0994 25.6135 11.2776 24.7428 11.637 23.3146C12.0594 21.6342 12.357 20.8365 12.5298 20.4649C12.6246 20.2611 12.81 20.1145 13.0356 20.0707C13.5168 19.9764 20.4832 19.9764 20.9644 20.0707C21.19 20.1145 21.3754 20.2611 21.4702 20.4649C21.643 20.8365 21.9406 21.6342 22.363 23.3146C22.7224 24.7428 22.9012 25.6135 22.99 26.1258C23.0572 26.514 22.7782 26.8757 22.3774 26.9268Z" fill="white"/>
</mask>
<g mask="url(#mask1_3885_60603)">
</g>
</svg>
