<svg width="48" height="48" viewBox="0 0 48 48" fill="none" xmlns="http://www.w3.org/2000/svg">
<rect x="6" y="12" width="36" height="24" rx="3" fill="#CC9D3F"/>
<mask id="mask0_3885_60598" style="mask-type:luminance" maskUnits="userSpaceOnUse" x="6" y="12" width="36" height="24">
<rect x="6" y="12" width="36" height="24" rx="3" fill="white"/>
</mask>
<g mask="url(#mask0_3885_60598)">
<rect x="5" y="11" width="36" height="24" rx="3" fill="#FFC54F"/>
<path fill-rule="evenodd" clip-rule="evenodd" d="M31.768 26.268C32.4507 26.268 32.972 26.02 33.332 25.524C33.692 25.028 33.872 24.3107 33.872 23.372C33.872 22.444 33.6907 21.7333 33.328 21.24C32.9653 20.7467 32.4453 20.5 31.768 20.5C31.0907 20.5 30.5707 20.7467 30.208 21.24C29.8453 21.7333 29.664 22.444 29.664 23.372C29.664 24.3107 29.844 25.028 30.204 25.524C30.564 26.02 31.0853 26.268 31.768 26.268ZM26.92 26.26C27.3573 26.26 27.74 26.1813 28.068 26.024C28.396 25.8667 28.6493 25.644 28.828 25.356C29.0067 25.068 29.096 24.7347 29.096 24.356C29.096 23.9987 29.0213 23.684 28.872 23.412C28.7227 23.14 28.512 22.928 28.24 22.776C27.968 22.624 27.6587 22.548 27.312 22.548C26.9653 22.548 26.664 22.62 26.408 22.764V21.508H28.824V20.556H25.192V23.892H25.904C26.0533 23.7693 26.22 23.6733 26.404 23.604C26.588 23.5347 26.7733 23.5 26.96 23.5C27.2587 23.5 27.4947 23.58 27.668 23.74C27.8413 23.9 27.928 24.1187 27.928 24.396C27.928 24.6893 27.844 24.9107 27.676 25.06C27.508 25.2093 27.2613 25.284 26.936 25.284C26.424 25.284 25.9093 25.1027 25.392 24.74L25 25.628C25.2187 25.82 25.504 25.9733 25.856 26.088C26.208 26.2027 26.5627 26.26 26.92 26.26ZM31.092 24.852C31.2333 25.1613 31.4587 25.316 31.768 25.316C32.0773 25.316 32.3027 25.1613 32.444 24.852C32.5853 24.5427 32.656 24.0493 32.656 23.372C32.656 22.7 32.5853 22.212 32.444 21.908C32.3027 21.604 32.0773 21.452 31.768 21.452C31.4587 21.452 31.2333 21.604 31.092 21.908C30.9507 22.212 30.88 22.7 30.88 23.372C30.88 24.0493 30.9507 24.5427 31.092 24.852ZM36.568 26.268C37.2507 26.268 37.772 26.02 38.132 25.524C38.492 25.028 38.672 24.3107 38.672 23.372C38.672 22.444 38.4907 21.7333 38.128 21.24C37.7653 20.7467 37.2453 20.5 36.568 20.5C35.8907 20.5 35.3707 20.7467 35.008 21.24C34.6453 21.7333 34.464 22.444 34.464 23.372C34.464 24.3107 34.644 25.028 35.004 25.524C35.364 26.02 35.8853 26.268 36.568 26.268ZM35.892 24.852C36.0333 25.1613 36.2587 25.316 36.568 25.316C36.8773 25.316 37.1027 25.1613 37.244 24.852C37.3853 24.5427 37.456 24.0493 37.456 23.372C37.456 22.7 37.3853 22.212 37.244 21.908C37.1027 21.604 36.8773 21.452 36.568 21.452C36.2587 21.452 36.0333 21.604 35.892 21.908C35.7507 22.212 35.68 22.7 35.68 23.372C35.68 24.0493 35.7507 24.5427 35.892 24.852Z" fill="#CC9D3F"/>
</g>
<path fill-rule="evenodd" clip-rule="evenodd" d="M22.3774 26.9268C21.6148 27.0244 12.3852 27.0244 11.6232 26.9268C11.2218 26.8757 10.9428 26.514 11.01 26.1258C11.0994 25.6135 11.2776 24.7428 11.637 23.3146C12.0594 21.6342 12.357 20.8365 12.5298 20.4649C12.6246 20.2611 12.81 20.1145 13.0356 20.0707C13.5168 19.9764 20.4832 19.9764 20.9644 20.0707C21.19 20.1145 21.3754 20.2611 21.4702 20.4649C21.643 20.8365 21.9406 21.6342 22.363 23.3146C22.7224 24.7428 22.9012 25.6135 22.99 26.1258C23.0572 26.514 22.7782 26.8757 22.3774 26.9268Z" fill="#CC9D3F"/>
<mask id="mask1_3885_60598" style="mask-type:luminance" maskUnits="userSpaceOnUse" x="11" y="20" width="12" height="7">
<path fill-rule="evenodd" clip-rule="evenodd" d="M22.3774 26.9268C21.6148 27.0244 12.3852 27.0244 11.6232 26.9268C11.2218 26.8757 10.9428 26.514 11.01 26.1258C11.0994 25.6135 11.2776 24.7428 11.637 23.3146C12.0594 21.6342 12.357 20.8365 12.5298 20.4649C12.6246 20.2611 12.81 20.1145 13.0356 20.0707C13.5168 19.9764 20.4832 19.9764 20.9644 20.0707C21.19 20.1145 21.3754 20.2611 21.4702 20.4649C21.643 20.8365 21.9406 21.6342 22.363 23.3146C22.7224 24.7428 22.9012 25.6135 22.99 26.1258C23.0572 26.514 22.7782 26.8757 22.3774 26.9268Z" fill="white"/>
</mask>
<g mask="url(#mask1_3885_60598)">
</g>
</svg>
