<svg width="48" height="48" viewBox="0 0 48 48" fill="none" xmlns="http://www.w3.org/2000/svg">
<rect x="6" y="12" width="36" height="24" rx="3" fill="#CC9D3F"/>
<mask id="mask0_3885_60606" style="mask-type:luminance" maskUnits="userSpaceOnUse" x="6" y="12" width="36" height="24">
<rect x="6" y="12" width="36" height="24" rx="3" fill="white"/>
</mask>
<g mask="url(#mask0_3885_60606)">
<rect x="5" y="11" width="36" height="24" rx="3" fill="#FFC54F"/>
<path d="M31.92 26.204C32.3573 26.204 32.74 26.1253 33.068 25.968C33.396 25.8107 33.6493 25.588 33.828 25.3C34.0067 25.012 34.096 24.6787 34.096 24.3C34.096 23.9427 34.0213 23.628 33.872 23.356C33.7227 23.084 33.512 22.872 33.24 22.72C32.968 22.568 32.6587 22.492 32.312 22.492C31.9653 22.492 31.664 22.564 31.408 22.708V21.452H33.824V20.5H30.192V23.836H30.904C31.0533 23.7133 31.22 23.6173 31.404 23.548C31.588 23.4787 31.7733 23.444 31.96 23.444C32.2587 23.444 32.4947 23.524 32.668 23.684C32.8413 23.844 32.928 24.0627 32.928 24.34C32.928 24.6333 32.844 24.8547 32.676 25.004C32.508 25.1533 32.2613 25.228 31.936 25.228C31.424 25.228 30.9093 25.0467 30.392 24.684L30 25.572C30.2187 25.764 30.504 25.9173 30.856 26.032C31.208 26.1467 31.5627 26.204 31.92 26.204Z" fill="#CC9D3F"/>
</g>
<path fill-rule="evenodd" clip-rule="evenodd" d="M22.3774 26.9268C21.6148 27.0244 12.3852 27.0244 11.6232 26.9268C11.2218 26.8757 10.9428 26.514 11.01 26.1258C11.0994 25.6135 11.2776 24.7428 11.637 23.3146C12.0594 21.6342 12.357 20.8365 12.5298 20.4649C12.6246 20.2611 12.81 20.1145 13.0356 20.0707C13.5168 19.9764 20.4832 19.9764 20.9644 20.0707C21.19 20.1145 21.3754 20.2611 21.4702 20.4649C21.643 20.8365 21.9406 21.6342 22.363 23.3146C22.7224 24.7428 22.9012 25.6135 22.99 26.1258C23.0572 26.514 22.7782 26.8757 22.3774 26.9268Z" fill="#CC9D3F"/>
<mask id="mask1_3885_60606" style="mask-type:luminance" maskUnits="userSpaceOnUse" x="11" y="20" width="12" height="7">
<path fill-rule="evenodd" clip-rule="evenodd" d="M22.3774 26.9268C21.6148 27.0244 12.3852 27.0244 11.6232 26.9268C11.2218 26.8757 10.9428 26.514 11.01 26.1258C11.0994 25.6135 11.2776 24.7428 11.637 23.3146C12.0594 21.6342 12.357 20.8365 12.5298 20.4649C12.6246 20.2611 12.81 20.1145 13.0356 20.0707C13.5168 19.9764 20.4832 19.9764 20.9644 20.0707C21.19 20.1145 21.3754 20.2611 21.4702 20.4649C21.643 20.8365 21.9406 21.6342 22.363 23.3146C22.7224 24.7428 22.9012 25.6135 22.99 26.1258C23.0572 26.514 22.7782 26.8757 22.3774 26.9268Z" fill="white"/>
</mask>
<g mask="url(#mask1_3885_60606)">
</g>
</svg>
