<svg width="48" height="48" viewBox="0 0 48 48" fill="none" xmlns="http://www.w3.org/2000/svg">
<rect x="6" y="12" width="36" height="24" rx="3" fill="#CC9D3F"/>
<mask id="mask0_3885_60601" style="mask-type:luminance" maskUnits="userSpaceOnUse" x="6" y="12" width="36" height="24">
<rect x="6" y="12" width="36" height="24" rx="3" fill="white"/>
</mask>
<g mask="url(#mask0_3885_60601)">
<rect x="5" y="11" width="36" height="24" rx="3" fill="#FFC54F"/>
<path fill-rule="evenodd" clip-rule="evenodd" d="M31.056 26.212V25.212H28.728L29.984 23.892C30.304 23.5507 30.532 23.2413 30.668 22.964C30.804 22.6867 30.872 22.3853 30.872 22.06C30.872 21.5853 30.6973 21.2067 30.348 20.924C29.9987 20.6413 29.5307 20.5 28.944 20.5C28.576 20.5 28.216 20.5573 27.864 20.672C27.512 20.7867 27.224 20.94 27 21.132L27.392 22.02C27.6373 21.844 27.888 21.7093 28.144 21.616C28.4 21.5227 28.6453 21.476 28.88 21.476C29.392 21.476 29.648 21.7 29.648 22.148C29.648 22.5 29.4507 22.884 29.056 23.3L27.176 25.292V26.212H31.056ZM33.856 26.284C34.5387 26.284 35.06 26.036 35.42 25.54C35.78 25.044 35.96 24.3267 35.96 23.388C35.96 22.46 35.7787 21.7493 35.416 21.256C35.0533 20.7627 34.5333 20.516 33.856 20.516C33.1787 20.516 32.6587 20.7627 32.296 21.256C31.9333 21.7493 31.752 22.46 31.752 23.388C31.752 24.3267 31.932 25.044 32.292 25.54C32.652 26.036 33.1733 26.284 33.856 26.284ZM33.18 24.868C33.3213 25.1773 33.5467 25.332 33.856 25.332C34.1653 25.332 34.3907 25.1773 34.532 24.868C34.6733 24.5587 34.744 24.0653 34.744 23.388C34.744 22.716 34.6733 22.228 34.532 21.924C34.3907 21.62 34.1653 21.468 33.856 21.468C33.5467 21.468 33.3213 21.62 33.18 21.924C33.0387 22.228 32.968 22.716 32.968 23.388C32.968 24.0653 33.0387 24.5587 33.18 24.868Z" fill="#CC9D3F"/>
</g>
<path fill-rule="evenodd" clip-rule="evenodd" d="M22.3774 26.9268C21.6148 27.0244 12.3852 27.0244 11.6232 26.9268C11.2218 26.8757 10.9428 26.514 11.01 26.1258C11.0994 25.6135 11.2776 24.7428 11.637 23.3146C12.0594 21.6342 12.357 20.8365 12.5298 20.4649C12.6246 20.2611 12.81 20.1145 13.0356 20.0707C13.5168 19.9764 20.4832 19.9764 20.9644 20.0707C21.19 20.1145 21.3754 20.2611 21.4702 20.4649C21.643 20.8365 21.9406 21.6342 22.363 23.3146C22.7224 24.7428 22.9012 25.6135 22.99 26.1258C23.0572 26.514 22.7782 26.8757 22.3774 26.9268Z" fill="#CC9D3F"/>
<mask id="mask1_3885_60601" style="mask-type:luminance" maskUnits="userSpaceOnUse" x="11" y="20" width="12" height="7">
<path fill-rule="evenodd" clip-rule="evenodd" d="M22.3774 26.9268C21.6148 27.0244 12.3852 27.0244 11.6232 26.9268C11.2218 26.8757 10.9428 26.514 11.01 26.1258C11.0994 25.6135 11.2776 24.7428 11.637 23.3146C12.0594 21.6342 12.357 20.8365 12.5298 20.4649C12.6246 20.2611 12.81 20.1145 13.0356 20.0707C13.5168 19.9764 20.4832 19.9764 20.9644 20.0707C21.19 20.1145 21.3754 20.2611 21.4702 20.4649C21.643 20.8365 21.9406 21.6342 22.363 23.3146C22.7224 24.7428 22.9012 25.6135 22.99 26.1258C23.0572 26.514 22.7782 26.8757 22.3774 26.9268Z" fill="white"/>
</mask>
<g mask="url(#mask1_3885_60601)">
</g>
</svg>
