<svg width="48" height="48" viewBox="0 0 48 48" fill="none" xmlns="http://www.w3.org/2000/svg">
<rect x="6" y="12" width="36" height="24" rx="3" fill="#CC9D3F"/>
<mask id="mask0_3885_60610" style="mask-type:luminance" maskUnits="userSpaceOnUse" x="6" y="12" width="36" height="24">
<rect x="6" y="12" width="36" height="24" rx="3" fill="white"/>
</mask>
<g mask="url(#mask0_3885_60610)">
<rect x="5" y="11" width="36" height="24" rx="3" fill="#FFC54F"/>
<path fill-rule="evenodd" clip-rule="evenodd" d="M33.768 26.268C34.4507 26.268 34.972 26.02 35.332 25.524C35.692 25.028 35.872 24.3107 35.872 23.372C35.872 22.444 35.6907 21.7333 35.328 21.24C34.9653 20.7467 34.4453 20.5 33.768 20.5C33.0907 20.5 32.5707 20.7467 32.208 21.24C31.8453 21.7333 31.664 22.444 31.664 23.372C31.664 24.3107 31.844 25.028 32.204 25.524C32.564 26.02 33.0853 26.268 33.768 26.268ZM28.92 26.26C29.3573 26.26 29.74 26.1813 30.068 26.024C30.396 25.8667 30.6493 25.644 30.828 25.356C31.0067 25.068 31.096 24.7347 31.096 24.356C31.096 23.9987 31.0213 23.684 30.872 23.412C30.7227 23.14 30.512 22.928 30.24 22.776C29.968 22.624 29.6587 22.548 29.312 22.548C28.9653 22.548 28.664 22.62 28.408 22.764V21.508H30.824V20.556H27.192V23.892H27.904C28.0533 23.7693 28.22 23.6733 28.404 23.604C28.588 23.5347 28.7733 23.5 28.96 23.5C29.2587 23.5 29.4947 23.58 29.668 23.74C29.8413 23.9 29.928 24.1187 29.928 24.396C29.928 24.6893 29.844 24.9107 29.676 25.06C29.508 25.2093 29.2613 25.284 28.936 25.284C28.424 25.284 27.9093 25.1027 27.392 24.74L27 25.628C27.2187 25.82 27.504 25.9733 27.856 26.088C28.208 26.2027 28.5627 26.26 28.92 26.26ZM33.092 24.852C33.2333 25.1613 33.4587 25.316 33.768 25.316C34.0773 25.316 34.3027 25.1613 34.444 24.852C34.5853 24.5427 34.656 24.0493 34.656 23.372C34.656 22.7 34.5853 22.212 34.444 21.908C34.3027 21.604 34.0773 21.452 33.768 21.452C33.4587 21.452 33.2333 21.604 33.092 21.908C32.9507 22.212 32.88 22.7 32.88 23.372C32.88 24.0493 32.9507 24.5427 33.092 24.852Z" fill="#CC9D3F"/>
</g>
<path fill-rule="evenodd" clip-rule="evenodd" d="M22.3774 26.9268C21.6148 27.0244 12.3852 27.0244 11.6232 26.9268C11.2218 26.8757 10.9428 26.514 11.01 26.1258C11.0994 25.6135 11.2776 24.7428 11.637 23.3146C12.0594 21.6342 12.357 20.8365 12.5298 20.4649C12.6246 20.2611 12.81 20.1145 13.0356 20.0707C13.5168 19.9764 20.4832 19.9764 20.9644 20.0707C21.19 20.1145 21.3754 20.2611 21.4702 20.4649C21.643 20.8365 21.9406 21.6342 22.363 23.3146C22.7224 24.7428 22.9012 25.6135 22.99 26.1258C23.0572 26.514 22.7782 26.8757 22.3774 26.9268Z" fill="#CC9D3F"/>
<mask id="mask1_3885_60610" style="mask-type:luminance" maskUnits="userSpaceOnUse" x="11" y="20" width="12" height="7">
<path fill-rule="evenodd" clip-rule="evenodd" d="M22.3774 26.9268C21.6148 27.0244 12.3852 27.0244 11.6232 26.9268C11.2218 26.8757 10.9428 26.514 11.01 26.1258C11.0994 25.6135 11.2776 24.7428 11.637 23.3146C12.0594 21.6342 12.357 20.8365 12.5298 20.4649C12.6246 20.2611 12.81 20.1145 13.0356 20.0707C13.5168 19.9764 20.4832 19.9764 20.9644 20.0707C21.19 20.1145 21.3754 20.2611 21.4702 20.4649C21.643 20.8365 21.9406 21.6342 22.363 23.3146C22.7224 24.7428 22.9012 25.6135 22.99 26.1258C23.0572 26.514 22.7782 26.8757 22.3774 26.9268Z" fill="white"/>
</mask>
<g mask="url(#mask1_3885_60610)">
</g>
</svg>
