<svg width="220" height="35" viewBox="0 0 220 35" fill="none" xmlns="http://www.w3.org/2000/svg">
<path fill-rule="evenodd" clip-rule="evenodd" d="M26.2967 28.367C24.261 30.1508 21.8733 31.2248 19.2359 31.6975C11.1583 33.1475 3.51031 28.3618 1.28066 20.5071C1.05962 19.727 0.899955 18.9349 0.814659 18.1283C0.693477 17.888 0.863028 17.6062 0.70752 17.37C0.70752 16.6627 0.70752 15.9554 0.70752 15.2481C0.838063 15.0464 0.741846 14.8222 0.772011 14.6095C0.824021 11.7273 1.97759 9.23924 3.61381 6.9608C5.9043 3.7712 9.04516 1.81885 12.8351 0.878564C13.442 0.727743 14.0661 0.70798 14.6892 0.7085C14.9373 0.676256 15.1974 0.77975 15.4366 0.644531C16.1023 0.644531 16.768 0.644531 17.4338 0.644531C17.6382 0.775069 17.8644 0.678856 18.0787 0.70902C21.1285 0.795352 23.7196 2.05809 26.1089 3.83725C26.2431 3.93711 26.3482 4.06764 26.3695 4.24603C26.3185 4.66053 25.9841 4.87792 25.7189 5.12599C23.0742 7.59217 21.5326 10.6403 21.0557 14.1992C20.5679 17.8381 21.2565 21.2654 23.1964 24.4108C23.8757 25.5128 24.6808 26.5134 25.6284 27.3996C25.8843 27.6389 26.1625 27.8651 26.3321 28.1849C26.356 28.2525 26.3435 28.3134 26.2967 28.367Z" fill="#BCD430"/>
<path fill-rule="evenodd" clip-rule="evenodd" d="M26.2963 28.367C26.289 28.3285 26.2843 28.29 26.2817 28.251C27.1383 27.4657 27.944 26.633 28.6502 25.7078C30.4633 23.3342 31.4811 20.6642 31.7661 17.6836C32.0371 14.8513 31.5201 12.1761 30.3244 9.62877C29.4694 7.80748 28.2987 6.19578 26.7758 4.85919C26.5891 4.69537 26.3743 4.55287 26.3639 4.26683C26.4211 3.94231 26.6983 3.79825 26.9225 3.6313C28.7111 2.30356 30.6854 1.36535 32.863 0.876483C33.4497 0.744385 34.0525 0.719422 34.6537 0.70902C34.9039 0.676256 35.166 0.77975 35.4078 0.644531C36.032 0.644531 36.6561 0.644531 37.2802 0.644531C37.5205 0.798993 37.8044 0.63205 38.0499 0.750106C41.2553 1.08191 44.0872 2.28016 46.5243 4.39685C46.5685 4.72293 46.3179 4.87948 46.1249 5.05422C44.3894 6.63212 43.0402 8.48825 42.2117 10.6824C40.1189 16.2238 40.8907 21.3673 44.4466 26.0989C44.8855 26.683 45.4009 27.1952 45.9127 27.7132C46.0937 27.8963 46.3553 28.0497 46.2976 28.3784C44.4434 30.0322 42.258 31.0557 39.8578 31.5727C35.062 32.605 30.6875 31.6174 26.768 28.6535C26.6208 28.5412 26.495 28.3935 26.2963 28.367Z" fill="#74BD45"/>
<path d="M116.631 13.7196C118.163 10.6253 121.541 9.6802 124.588 11.3202C124.694 11.3774 124.8 11.4351 124.988 11.536C124.955 10.872 125.351 10.8464 125.807 10.8573C126.576 10.876 127.346 10.8771 128.115 10.8573C128.586 10.8448 128.792 11.0136 128.791 11.5077C128.776 16.9553 128.777 22.4029 128.766 27.8505C128.765 28.5586 128.648 29.2584 128.479 29.9452C127.884 32.3583 126.346 33.7663 123.908 34.2089C123.779 34.2322 123.605 34.1554 123.533 34.3446H121.411C121.161 34.2427 120.911 34.2427 120.662 34.3446C120.62 34.3451 120.578 34.3446 120.537 34.3446C119.943 34.0405 119.269 34.0609 118.645 33.8681C118.03 33.6777 117.42 33.4847 116.828 33.2294C116.426 33.0562 116.258 32.8294 116.373 32.3602C116.549 31.6354 116.651 30.8918 116.785 30.1571C116.915 29.4405 117.097 29.3519 117.735 29.6825C119.006 30.3425 120.358 30.7186 121.788 30.7919C123.425 30.8761 124.321 30.181 124.682 28.5888C124.811 28.0245 124.829 27.4555 124.864 26.7753C123.838 27.4363 122.839 27.8405 121.712 27.8915C119.245 28.0038 117.262 26.9244 116.329 24.6425C114.833 20.9864 114.871 17.2769 116.631 13.7196ZM124.58 14.8319C122.934 13.654 120.668 13.3402 119.893 16.2001C119.458 17.8081 119.444 19.4402 119.608 21.08C119.676 21.7628 119.836 22.4283 120.146 23.0487C120.769 24.2921 121.841 24.7318 123.154 24.2841C123.612 24.1275 124.003 23.8624 124.385 23.5722C124.674 23.3527 124.789 23.0997 124.782 22.7284C124.758 21.5246 124.773 20.3199 124.773 19.1161C124.773 17.891 124.776 16.6659 124.771 15.4413C124.771 15.224 124.823 15.0066 124.58 14.8319Z" fill="white"/>
<path fill-rule="evenodd" clip-rule="evenodd" d="M14.6709 0.750533C14.6803 0.715688 14.6855 0.680323 14.6881 0.644438C14.9377 0.644438 15.1874 0.644438 15.437 0.644438C15.2045 0.848827 14.932 0.760414 14.6709 0.750533Z" fill="#D9E68B"/>
<path fill-rule="evenodd" clip-rule="evenodd" d="M34.647 0.752116C34.6558 0.716751 34.66 0.680866 34.6589 0.644461C34.9086 0.644461 35.1582 0.644461 35.4079 0.644461C35.1759 0.833767 34.907 0.763038 34.647 0.752116Z" fill="#BDDFA8"/>
<path fill-rule="evenodd" clip-rule="evenodd" d="M38.05 0.750661C37.7868 0.763143 37.5133 0.854676 37.2803 0.645087C37.5299 0.645087 37.7796 0.645087 38.0292 0.645087C38.0323 0.680972 38.0396 0.715816 38.05 0.750661Z" fill="#A7D58A"/>
<path fill-rule="evenodd" clip-rule="evenodd" d="M0.707344 17.3711C0.893018 17.6025 0.822285 17.8704 0.815004 18.1294C0.779117 18.1294 0.743231 18.1262 0.707344 18.12C0.707344 17.8704 0.707344 17.6207 0.707344 17.3711Z" fill="#E5EEB1"/>
<path fill-rule="evenodd" clip-rule="evenodd" d="M120.662 34.346C120.912 34.1021 121.161 34.2119 121.411 34.346C121.161 34.346 120.911 34.346 120.662 34.346Z" fill="#709A95"/>
<path fill-rule="evenodd" clip-rule="evenodd" d="M18.0577 0.645371C18.0613 0.679696 18.066 0.71402 18.0723 0.748345C17.8512 0.763947 17.6219 0.831557 17.4336 0.645371C17.6416 0.645371 17.8497 0.645371 18.0577 0.645371Z" fill="#E0EBA0"/>
<path fill-rule="evenodd" clip-rule="evenodd" d="M0.707408 14.6243C0.739134 14.6076 0.77242 14.6019 0.807786 14.6076C0.82651 14.8292 0.894122 15.059 0.707408 15.2484C0.707408 15.0403 0.707408 14.8323 0.707408 14.6243Z" fill="#DFEBA0"/>
<path fill-rule="evenodd" clip-rule="evenodd" d="M46.2977 28.3785C45.285 27.2827 44.2152 26.239 43.4163 24.9585C42.0766 22.8107 41.2465 20.5052 41.0062 17.9703C40.6 13.6803 41.8072 9.89259 44.4664 6.55113C45.0822 5.77726 45.8348 5.11209 46.5249 4.39699C47.9074 3.40209 49.3262 2.48 50.9307 1.85904C60.2752 -1.75858 70.648 4.27893 72.0855 14.1858C73.3202 22.6968 67.4343 30.7095 58.9817 31.9442C54.4366 32.6078 50.3284 31.5011 46.7169 28.6308C46.5884 28.5294 46.4792 28.3936 46.2977 28.3785Z" fill="#0AA94E"/>
<path d="M91.8196 5.26646C93.1618 5.27431 94.4631 5.51238 95.68 6.10728C98.0384 7.25929 99.2447 9.71203 98.8958 12.6337C98.3825 16.9274 95.5721 19.4454 91.2376 19.4891C90.2609 19.499 89.2831 19.5108 88.3069 19.4833C87.9061 19.4718 87.7838 19.5777 87.7874 19.993C87.8082 22.2376 87.7977 24.4823 87.7972 26.7274C87.7966 27.6053 87.7436 27.6599 86.8948 27.662C86.0841 27.6635 85.2734 27.6656 84.4632 27.662C83.7163 27.6583 83.6366 27.5818 83.636 26.8407C83.634 23.37 83.6351 19.8988 83.6351 16.4276C83.6351 12.9982 83.6345 9.56743 83.636 6.13756C83.6366 5.31525 83.6954 5.2606 84.5237 5.2606C86.9556 5.2606 89.3878 5.25138 91.8196 5.26646ZM88.2874 8.71275C87.8432 8.69715 87.784 8.87782 87.7913 9.25279C87.8116 10.292 87.8035 14.533 87.7952 15.6131C87.7926 15.875 87.8157 16.0404 88.1536 16.0321C89.2754 16.0045 90.4013 16.0571 91.5188 15.9833C93.2232 15.8699 94.2906 14.8405 94.597 13.1571C94.6874 12.6616 94.7103 12.1659 94.6858 11.6678C94.5964 9.86734 93.6417 8.86326 91.8401 8.76549C90.6581 8.70155 89.471 8.75486 88.2874 8.71275Z" fill="white"/>
<path d="M158.365 5.24886C159.174 5.2899 159.987 5.25754 160.798 5.2596C161.572 5.26117 161.613 5.29938 161.613 6.07406V26.8543C161.611 27.6005 161.554 27.6568 160.786 27.661C160.142 27.6641 159.496 27.6615 158.851 27.661C157.933 27.661 157.933 27.6612 157.788 26.7528C156.967 27.3175 156.108 27.7406 155.12 27.8914C152.676 28.2654 150.557 27.2529 149.373 25.0702C148.297 23.0862 148.088 20.9225 148.18 18.7186C148.245 17.1517 148.546 15.6281 149.216 14.1922C150.744 10.9171 153.815 9.72286 157.141 11.1395C157.547 11.3125 157.582 11.2033 157.579 10.8397C157.568 9.23786 157.594 7.63532 157.565 6.03402C157.554 5.43196 157.765 5.2187 158.365 5.24886ZM157.413 14.7948C155.75 13.5882 153.573 13.4096 152.758 16.0926C152.261 17.7282 152.267 19.4107 152.437 21.0936C152.506 21.7764 152.668 22.4414 152.976 23.0633C153.629 24.3841 154.774 24.8309 156.141 24.2948C156.531 24.1419 156.867 23.9035 157.203 23.6571C157.496 23.4423 157.616 23.1955 157.609 22.8221C157.585 21.5974 157.6 20.3706 157.6 19.1453C157.6 17.8781 157.599 16.6109 157.6 15.3436C157.599 15.1409 157.625 14.9486 157.413 14.7948Z" fill="white"/>
<path d="M190.897 11.1656C193.24 10.6279 195.601 10.2615 197.987 10.8414C200.219 11.3839 201.372 12.838 201.677 15.2965C201.869 16.8525 201.77 18.4116 201.81 19.8277C201.81 21.195 201.797 22.4217 201.814 23.648C201.825 24.4923 201.974 24.6028 202.784 24.399C203.282 24.2742 203.535 24.4053 203.567 24.9469C203.607 25.6099 203.685 26.2713 203.755 26.9322C203.788 27.2385 203.703 27.485 203.396 27.5719C202.373 27.8615 201.345 28.0962 200.267 27.8883C199.572 27.7541 199.011 27.4297 198.69 26.7955C198.519 26.4559 198.399 26.47 198.112 26.6744C196.47 27.8439 194.654 28.2681 192.682 27.7721C190.633 27.2567 189.575 25.8202 189.206 23.815C189.035 22.8868 189.055 21.9495 189.247 21.026C189.748 18.6243 191.391 17.1261 193.907 16.7428C195.045 16.5696 196.186 16.5345 197.32 16.732C197.821 16.8189 197.928 16.6634 197.877 16.1891C197.721 14.7393 197.147 14.1352 195.677 13.9693C194.291 13.8133 192.946 14.072 191.612 14.4059C190.897 14.5848 190.757 14.4975 190.686 13.7896C190.62 13.1495 190.55 12.5088 190.464 11.8707C190.414 11.5046 190.524 11.2509 190.897 11.1656ZM195.841 19.5631C193.809 19.6593 192.926 20.7776 193.261 22.9732C193.454 24.2452 194.256 24.7868 195.526 24.5943C196.367 24.4669 197.124 24.1013 197.709 23.4918C198.12 23.0633 197.807 22.4594 197.885 21.941C197.9 21.8391 197.887 21.733 197.887 21.6295C197.887 19.5287 197.802 19.47 195.841 19.5631Z" fill="white"/>
<path d="M166.576 11.1658C168.919 10.6265 171.28 10.2622 173.667 10.8416C175.865 11.3752 177.011 12.7846 177.337 15.1736C177.548 16.7286 177.449 18.2875 177.486 19.6267C177.486 21.0708 177.476 22.2979 177.49 23.5242C177.5 24.4994 177.601 24.5781 178.526 24.3806C178.964 24.287 179.202 24.4163 179.238 24.8894C179.29 25.5728 179.364 26.2549 179.436 26.9373C179.469 27.244 179.381 27.4871 179.073 27.574C178.049 27.8621 177.021 28.0965 175.943 27.8884C175.247 27.7543 174.686 27.4256 174.367 26.7937C174.19 26.4463 174.072 26.4758 173.789 26.6765C172.146 27.8466 170.331 28.2668 168.358 27.7722C166.389 27.2787 165.099 25.7231 164.853 23.6277C164.755 22.7967 164.745 21.9639 164.903 21.1433C165.433 18.3892 167.425 16.7908 170.519 16.6316C171.37 16.5879 172.226 16.5617 173.067 16.738C173.515 16.8321 173.593 16.6522 173.567 16.2537C173.472 14.8287 172.842 14.1459 171.42 13.9763C170.013 13.8083 168.647 14.068 167.292 14.405C166.58 14.5823 166.431 14.4923 166.358 13.7908C166.291 13.1507 166.237 12.5084 166.149 11.8709C166.097 11.4986 166.207 11.2506 166.576 11.1658ZM173.098 19.6658C172.332 19.5488 171.567 19.5114 170.807 19.6492C169.902 19.8126 169.234 20.291 169 21.2244C168.858 21.7891 168.815 22.3634 168.929 22.95C169.172 24.1957 169.866 24.7467 171.119 24.6023C171.99 24.5019 172.759 24.1233 173.37 23.5076C173.794 23.0801 173.487 22.4805 173.565 21.9646C173.58 21.8633 173.568 21.7574 173.568 21.6541C173.568 21.1974 173.545 20.7394 173.575 20.2859C173.598 19.9146 173.498 19.7272 173.098 19.6658Z" fill="white"/>
<path d="M133.618 11.1697C135.961 10.6289 138.321 10.2648 140.709 10.8416C142.91 11.3726 144.068 12.7739 144.38 15.1687C144.417 15.4573 144.482 15.7454 144.484 16.034C144.496 17.3018 144.49 18.5698 144.49 19.8377C144.507 19.8367 144.523 19.8367 144.539 19.8367C144.539 21.0838 144.524 22.3318 144.544 23.5789C144.559 24.5071 144.669 24.5827 145.57 24.3845C146.004 24.2889 146.252 24.4052 146.289 24.8826C146.343 25.5658 146.415 26.2473 146.487 26.9295C146.52 27.2337 146.441 27.4851 146.132 27.573C145.11 27.8637 144.081 28.0982 143.003 27.8914C142.333 27.7629 141.759 27.4669 141.459 26.8533C141.228 26.3806 141.055 26.5306 140.745 26.7449C139.125 27.8676 137.342 28.2556 135.417 27.7761C133.427 27.28 132.127 25.7016 131.9 23.575C131.814 22.7658 131.8 21.9525 131.955 21.1521C132.495 18.3677 134.502 16.7696 137.626 16.6297C138.477 16.5917 139.332 16.577 140.174 16.7439C140.542 16.8167 140.633 16.6858 140.622 16.3269C140.582 14.8957 139.917 14.1488 138.482 13.9793C137.053 13.8103 135.669 14.0731 134.295 14.4236C133.639 14.591 133.485 14.4885 133.41 13.8045C133.341 13.1643 133.292 12.5211 133.204 11.8836C133.153 11.5154 133.246 11.256 133.618 11.1697ZM140.092 19.656C139.347 19.5411 138.602 19.5136 137.862 19.6482C136.93 19.8178 136.259 20.3188 136.037 21.282C135.911 21.8289 135.875 22.382 135.981 22.947C136.21 24.163 136.884 24.718 138.108 24.6072C139.007 24.5261 139.792 24.1351 140.422 23.5095C140.85 23.0847 140.54 22.4834 140.617 21.9676C140.635 21.846 140.619 21.7192 140.619 21.5945C140.619 21.1592 140.584 20.719 140.628 20.2879C140.675 19.8504 140.472 19.7143 140.092 19.656Z" fill="white"/>
<path fill-rule="evenodd" clip-rule="evenodd" d="M210.071 12.1155C211.364 11.2495 212.656 10.6697 214.129 10.5755C215.031 10.5178 215.924 10.5818 216.765 10.9167C218.663 11.6729 219.355 13.2326 219.377 15.1319C219.417 18.5623 219.393 21.9932 219.396 25.4241C219.396 25.9228 219.372 26.4237 219.403 26.9209C219.435 27.4545 219.231 27.6822 218.686 27.6677C217.834 27.6443 216.98 27.6396 216.129 27.6692C215.56 27.6895 215.368 27.4727 215.371 26.9027C215.39 23.4717 215.38 20.0408 215.381 16.6099C215.381 16.1523 215.375 15.6956 215.287 15.2437C215.186 14.721 214.883 14.3747 214.37 14.2582C212.787 13.8988 211.543 14.605 210.387 15.5609C210.177 15.7352 210.275 15.9905 210.275 16.2079C210.269 19.722 210.271 23.2356 210.27 26.7498C210.27 27.612 210.221 27.6599 209.349 27.6609C208.537 27.6625 207.726 27.6484 206.916 27.6661C206.427 27.677 206.187 27.5049 206.188 26.9833C206.196 21.8262 206.195 16.6697 206.19 11.5132C206.19 11.0347 206.396 10.8439 206.873 10.8569C207.642 10.8782 208.411 10.861 209.181 10.8631C209.972 10.8647 210.001 10.8959 210.041 11.7155C210.046 11.8169 210.056 11.9178 210.071 12.1155Z" fill="white"/>
<path d="M100.836 14.7988C102.081 11.1763 106.01 9.52114 109.528 11.0527C111.378 11.8583 112.218 13.436 112.659 15.29C112.999 16.7189 112.973 18.1764 112.973 19.6318C112.973 20.1066 112.707 20.2277 112.289 20.2246C111.02 20.2152 109.752 20.2201 108.484 20.2207C107.236 20.2207 105.989 20.2368 104.741 20.2119C104.348 20.2041 104.213 20.3132 104.297 20.7011C104.363 21.0046 104.38 21.3186 104.449 21.621C104.94 23.7487 106.411 24.7444 108.588 24.4433C109.647 24.2972 110.646 23.9709 111.601 23.4941C112.23 23.18 112.475 23.3249 112.53 24.0244C112.586 24.7498 112.62 25.4767 112.687 26.2011C112.719 26.5561 112.621 26.7914 112.282 26.9443C109.809 28.0619 107.258 28.4023 104.64 27.5869C102.744 26.9961 101.502 25.6454 100.88 23.7949C99.879 20.8143 99.8121 17.7783 100.836 14.7988ZM107.102 13.8857C106.25 13.7853 105.558 14.0816 105.048 14.7822C104.609 15.3858 104.437 16.0831 104.312 16.8027C104.246 17.1803 104.399 17.2575 104.741 17.2451C105.383 17.2217 106.026 17.2382 106.669 17.2382C106.918 17.2382 107.168 17.2503 107.416 17.2363C107.948 17.2047 108.774 17.4694 108.946 17.1289C109.207 16.6098 108.912 15.8863 108.691 15.2773C108.684 15.2582 108.681 15.2377 108.673 15.2187C108.379 14.5031 107.912 13.9814 107.102 13.8857Z" fill="white"/>
<path fill-rule="evenodd" clip-rule="evenodd" d="M181.882 19.2303C181.882 16.7157 181.88 14.2006 181.883 11.6856C181.884 10.9252 181.946 10.867 182.696 10.8649C183.527 10.8623 184.36 10.8857 185.19 10.8566C185.733 10.8379 185.931 11.0542 185.927 11.5878C185.912 13.6868 185.92 15.7863 185.92 17.8854C185.92 20.8576 185.921 23.8303 185.92 26.8025C185.919 27.5915 185.851 27.6596 185.07 27.6627C184.259 27.6658 183.448 27.6409 182.639 27.671C182.065 27.6929 181.87 27.4594 181.874 26.8998C181.892 24.3436 181.882 21.7869 181.882 19.2303Z" fill="white"/>
<path fill-rule="evenodd" clip-rule="evenodd" d="M186.202 7.21156C186.194 8.64851 185.291 9.54772 183.863 9.53732C182.475 9.52743 181.553 8.5705 181.565 7.15279C181.576 5.77668 182.5 4.87643 183.897 4.87695C185.357 4.87695 186.208 5.74079 186.202 7.21156Z" fill="white"/>
<path fill-rule="evenodd" clip-rule="evenodd" d="M26.3175 4.272C26.3529 4.2668 26.3882 4.26992 26.4226 4.28032C27.6609 5.39172 28.7692 6.6144 29.6425 8.03836C30.9521 10.1727 31.7182 12.4735 31.9325 14.9818C32.2601 18.8184 31.2813 22.2784 29.0777 25.4025C28.3859 26.3829 27.6276 27.32 26.6629 28.0627C26.5453 28.1527 26.4371 28.2447 26.2827 28.2525C22.9197 25.3016 21.0016 21.6294 20.7837 17.1313C20.5476 12.2535 22.2587 8.15382 25.7917 4.79935C25.9717 4.62773 26.1422 4.44779 26.3175 4.272Z" fill="#0AA94E"/>
<path fill-rule="evenodd" clip-rule="evenodd" d="M49.628 11.3228C49.2645 11.5396 49.0055 11.6655 48.7792 11.8345C48.4562 12.0758 48.218 12.0238 48.0006 11.6998C47.7598 11.3415 47.9954 11.1709 48.2581 11.0076C51.0978 9.24248 54.184 8.43169 57.5231 8.6808C60.1344 8.87583 62.5513 9.71575 64.8122 11.0216C65.08 11.1766 65.4061 11.2957 65.1664 11.7222C64.9386 12.1268 64.6536 12.0602 64.3295 11.8688C64.1215 11.7456 63.9057 11.6353 63.6664 11.5053C63.6409 11.7674 63.7772 11.9344 63.8557 12.1154C65.1752 15.1609 66.4983 18.2049 67.8204 21.2499C68.2178 22.1642 68.0643 22.7113 67.2285 23.2714C66.4531 23.7915 65.5731 24.0328 64.6603 24.1587C63.0792 24.3761 61.5106 24.3448 59.9701 23.8737C59.45 23.7145 58.9554 23.5008 58.5222 23.1684C57.8273 22.6354 57.6936 22.1221 58.0442 21.3139C59.4552 18.0593 60.8537 14.7984 62.3012 11.5599C62.542 11.0211 62.4109 10.8776 61.9277 10.6919C58.3448 9.31165 54.7655 9.2404 51.1613 10.6134C50.677 10.7975 50.6001 10.9691 50.8123 11.4481C52.2555 14.711 53.6676 17.9885 55.0895 21.2608C55.476 22.1501 55.334 22.6905 54.5356 23.2433C53.7487 23.7884 52.8474 24.0344 51.9144 24.1618C50.3333 24.3776 48.7641 24.3443 47.2236 23.8716C46.8044 23.7431 46.404 23.5736 46.0331 23.3401C45.0928 22.7482 44.9279 22.2126 45.3705 21.1927C46.6921 18.1477 48.0142 15.1032 49.3352 12.0582C49.4215 11.8574 49.497 11.6525 49.628 11.3228Z" fill="#FEFEFE"/>
<path fill-rule="evenodd" clip-rule="evenodd" d="M46.4111 21.0755C46.4871 20.8706 46.5235 20.7541 46.5718 20.6428C47.7681 17.8833 48.9653 15.1238 50.1631 12.3633C50.3155 12.4345 50.3446 12.5562 50.3925 12.667C51.532 15.2944 52.6653 17.9244 53.8204 20.5445C54.0056 20.9648 53.9936 21.0911 53.4803 21.0864C51.1518 21.062 48.8228 21.0755 46.4111 21.0755Z" fill="#0AA94E"/>
<path fill-rule="evenodd" clip-rule="evenodd" d="M66.764 21.0471C64.1864 21.0471 61.7035 21.0471 59.1353 21.0471C60.4006 18.1249 61.6416 15.2582 62.9449 12.248C64.2389 15.2301 65.484 18.0989 66.764 21.0471Z" fill="#0AA94E"/>
</svg>
